<?xml version="1.0" encoding="UTF-8" ?>
<score-partwise version="3.0">
 <work>
  <work-title>Alle Meine Entchen</work-title>
 </work>
 <identification>
  <encoding>
   <encoding-date>2019-10-11</encoding-date>
   <software>Guitar Pro 7</software>
   <encoder></encoder>
  </encoding>
 </identification>
 <defaults><scaling><millimeters>6.4</millimeters>
   <tenths>40</tenths>
  </scaling>
  <page-layout><page-height>1850</page-height>
   <page-width>1310</page-width>
  </page-layout>
 </defaults>
 <credit><credit-words default-x="655" font-size="24" valign="top" justify="center" default-y="1790">Alle Meine Entchen</credit-words>
 </credit>
 <part-list>
  <score-part id="P0">
   <part-name>Nylon Guitar</part-name>
   <part-abbreviation>Nylon Guitar</part-abbreviation>
   <midi-instrument id="P0">
    <midi-channel>1</midi-channel>
    <midi-bank>1</midi-bank>
    <midi-program>25</midi-program>
    <volume>80</volume>
    <pan>0</pan>
   </midi-instrument>
  </score-part>
 </part-list>
 <part id="P0">
  <measure number="0">
   <attributes>
    <divisions>1</divisions>
    <key>
     <fifths>1</fifths>
     <mode>major</mode>
    </key>
    <time>
     <beats>4</beats>
     <beat-type>4</beat-type>
    </time>
    <clef>
     <sign>TAB</sign>
     <line>5</line>
    </clef>
    <staff-details>
     <staff-lines>6</staff-lines>
     <staff-tuning line="1">
      <tuning-step>E</tuning-step>
      <tuning-octave>3</tuning-octave>
     </staff-tuning>
     <staff-tuning line="2">
      <tuning-step>A</tuning-step>
      <tuning-octave>3</tuning-octave>
     </staff-tuning>
     <staff-tuning line="3">
      <tuning-step>D</tuning-step>
      <tuning-octave>4</tuning-octave>
     </staff-tuning>
     <staff-tuning line="4">
      <tuning-step>G</tuning-step>
      <tuning-octave>4</tuning-octave>
     </staff-tuning>
     <staff-tuning line="5">
      <tuning-step>B</tuning-step>
      <tuning-octave>4</tuning-octave>
     </staff-tuning>
     <staff-tuning line="6">
      <tuning-step>E</tuning-step>
      <tuning-octave>5</tuning-octave>
     </staff-tuning>
    </staff-details>
   </attributes>
   <attributes></attributes>
   <direction directive="yes"><direction-type><metronome parentheses="yes" default-y="40">
      <beat-unit>quarter</beat-unit>
      <per-minute>120</per-minute>
     </metronome>
    </direction-type>
    <sound tempo="120"/>
   </direction>
   <note>
    <pitch>
     <step>G</step>
     <octave>4</octave>
    </pitch>
    <duration>1</duration>
    <voice>1</voice>
    <type>quarter</type>
    <stem>up</stem>
    <notations>
     <dynamics><mf></mf>
     </dynamics>
     <technical>
      <string>3</string>
      <fret>0</fret>
     </technical>
<?GP7 <root></root>?>
    </notations>
<?GP7 <root></root>?>
   </note>
   <attributes></attributes>
   <note>
    <pitch>
     <step>A</step>
     <octave>4</octave>
    </pitch>
    <duration>1</duration>
    <voice>1</voice>
    <type>quarter</type>
    <stem>up</stem>
    <notations>
     <technical>
      <string>3</string>
      <fret>2</fret>
     </technical>
<?GP7 <root></root>?>
    </notations>
<?GP7 <root></root>?>
   </note>
   <attributes></attributes>
   <note>
    <chord/>
    <pitch>
     <step>F</step>
     <octave>4</octave>
    </pitch>
    <duration>1</duration>
    <voice>1</voice>
    <type>quarter</type>
    <stem>up</stem>
    <notations>
     <technical>
      <string>4</string>
      <fret>4</fret>
     </technical>
<?GP7 <root></root>?>
    </notations>
<?GP7 <root></root>?>
   </note>
   <attributes></attributes>
   <note>
    <chord/>
    <pitch>
     <step>B</step>
     <octave>3</octave>
    </pitch>
    <duration>1</duration>
    <voice>1</voice>
    <type>quarter</type>
    <stem>up</stem>
    <notations>
     <technical>
      <string>5</string>
      <fret>2</fret>
     </technical>
<?GP7 <root></root>?>
    </notations>
<?GP7 <root></root>?>
   </note>
   <attributes></attributes>
   <note>
    <pitch>
     <step>B</step>
     <octave>4</octave>
    </pitch>
    <duration>1</duration>
    <voice>1</voice>
    <type>quarter</type>
    <stem>up</stem>
    <notations>
     <technical>
      <string>2</string>
      <fret>0</fret>
     </technical>
<?GP7 <root></root>?>
    </notations>
<?GP7 <root></root>?>
   </note>
   <attributes></attributes>
   <note>
    <chord/>
    <pitch>
     <step>E</step>
     <octave>4</octave>
    </pitch>
    <duration>1</duration>
    <voice>1</voice>
    <type>quarter</type>
    <stem>up</stem>
    <notations>
     <technical>
      <string>4</string>
      <fret>2</fret>
     </technical>
<?GP7 <root></root>?>
    </notations>
<?GP7 <root></root>?>
   </note>
   <attributes></attributes>
   <note>
    <chord/>
    <pitch>
     <step>B</step>
     <octave>3</octave>
    </pitch>
    <duration>1</duration>
    <voice>1</voice>
    <type>quarter</type>
    <stem>up</stem>
    <notations>
     <technical>
      <string>5</string>
      <fret>2</fret>
     </technical>
<?GP7 <root></root>?>
    </notations>
<?GP7 <root></root>?>
   </note>
   <attributes></attributes>
   <note>
    <chord/>
    <pitch>
     <step>A</step>
     <octave>4</octave>
    </pitch>
    <duration>1</duration>
    <voice>1</voice>
    <type>quarter</type>
    <stem>up</stem>
    <notations>
     <technical>
      <string>3</string>
      <fret>2</fret>
     </technical>
<?GP7 <root></root>?>
    </notations>
<?GP7 <root></root>?>
   </note>
   <attributes></attributes>
   <note>
    <chord/>
    <pitch>
     <step>F</step>
     <octave>5</octave>
    </pitch>
    <duration>1</duration>
    <voice>1</voice>
    <type>quarter</type>
    <stem>up</stem>
    <notations>
     <technical>
      <string>1</string>
      <fret>2</fret>
     </technical>
<?GP7 <root></root>?>
    </notations>
<?GP7 <root></root>?>
   </note>
   <attributes></attributes>
   <note>
    <pitch>
     <step>C</step>
     <octave>5</octave>
    </pitch>
    <duration>1</duration>
    <voice>1</voice>
    <type>quarter</type>
    <stem>up</stem>
    <notations>
     <technical>
      <string>2</string>
      <fret>1</fret>
     </technical>
<?GP7 <root></root>?>
    </notations>
<?GP7 <root></root>?>
   </note>
   <attributes></attributes>
   <note>
    <chord/>
    <pitch>
     <step>D</step>
     <octave>4</octave>
    </pitch>
    <duration>1</duration>
    <voice>1</voice>
    <type>quarter</type>
    <stem>up</stem>
    <notations>
     <technical>
      <string>4</string>
      <fret>0</fret>
     </technical>
<?GP7 <root></root>?>
    </notations>
<?GP7 <root></root>?>
   </note>
   <attributes></attributes>
   <note>
    <chord/>
    <pitch>
     <step>G</step>
     <octave>4</octave>
    </pitch>
    <duration>1</duration>
    <voice>1</voice>
    <type>quarter</type>
    <stem>up</stem>
    <notations>
     <technical>
      <string>3</string>
      <fret>1</fret>
     </technical>
<?GP7 <root></root>?>
    </notations>
<?GP7 <root></root>?>
   </note>
  </measure>
  <measure number="1">
   <attributes>
    <clef>
     <sign>G</sign>
     <line>2</line>
    </clef>
   </attributes>
   <attributes></attributes>
   <note>
    <pitch>
     <step>D</step>
     <octave>5</octave>
    </pitch>
    <duration>1</duration>
    <voice>1</voice>
    <type>quarter</type>
    <stem>up</stem>
    <notations>
     <technical>
      <string>2</string>
      <fret>3</fret>
     </technical>
<?GP7 <root></root>?>
    </notations>
<?GP7 <root></root>?>
   </note>
   <attributes></attributes>
   <note>
    <chord/>
    <pitch>
     <step>G</step>
     <octave>4</octave>
    </pitch>
    <duration>1</duration>
    <voice>1</voice>
    <type>quarter</type>
    <stem>up</stem>
    <notations>
     <technical>
      <string>3</string>
      <fret>0</fret>
     </technical>
<?GP7 <root></root>?>
    </notations>
<?GP7 <root></root>?>
   </note>
   <attributes></attributes>
   <note>
    <chord/>
    <pitch>
     <step>F</step>
     <octave>5</octave>
    </pitch>
    <duration>1</duration>
    <voice>1</voice>
    <type>quarter</type>
    <stem>up</stem>
    <notations>
     <technical>
      <string>1</string>
      <fret>1</fret>
     </technical>
<?GP7 <root></root>?>
    </notations>
<?GP7 <root></root>?>
   </note>
   <attributes></attributes>
   <note>
    <chord/>
    <pitch>
     <step>D</step>
     <octave>4</octave>
    </pitch>
    <duration>1</duration>
    <voice>1</voice>
    <type>quarter</type>
    <stem>up</stem>
    <notations>
     <technical>
      <string>4</string>
      <fret>1</fret>
     </technical>
<?GP7 <root></root>?>
    </notations>
<?GP7 <root></root>?>
   </note>
   <attributes></attributes>
   <note>
    <chord/>
    <pitch>
     <step>A</step>
     <octave>3</octave>
    </pitch>
    <duration>1</duration>
    <voice>1</voice>
    <type>quarter</type>
    <stem>up</stem>
    <notations>
     <technical>
      <string>5</string>
      <fret>1</fret>
     </technical>
<?GP7 <root></root>?>
    </notations>
<?GP7 <root></root>?>
   </note>
   <attributes></attributes>
   <note>
    <chord/>
    <pitch>
     <step>G</step>
     <octave>3</octave>
    </pitch>
    <duration>1</duration>
    <voice>1</voice>
    <type>quarter</type>
    <stem>up</stem>
    <notations>
     <technical>
      <string>6</string>
      <fret>3</fret>
     </technical>
<?GP7 <root></root>?>
    </notations>
<?GP7 <root></root>?>
   </note>
   <attributes></attributes>
   <note>
    <pitch>
     <step>G</step>
     <octave>3</octave>
    </pitch>
    <duration>1</duration>
    <voice>1</voice>
    <type>quarter</type>
    <stem>up</stem>
    <notations>
     <technical>
      <string>6</string>
      <fret>3</fret>
     </technical>
<?GP7 <root></root>?>
    </notations>
<?GP7 <root></root>?>
   </note>
   <attributes></attributes>
   <note>
    <pitch>
     <step>D</step>
     <octave>5</octave>
    </pitch>
    <duration>1</duration>
    <voice>1</voice>
    <type>quarter</type>
    <stem>up</stem>
    <notations>
     <technical>
      <string>2</string>
      <fret>3</fret>
     </technical>
<?GP7 <root></root>?>
    </notations>
<?GP7 <root></root>?>
   </note>
   <attributes></attributes>
   <note>
    <pitch>
     <step>B</step>
     <octave>3</octave>
    </pitch>
    <duration>1</duration>
    <voice>1</voice>
    <type>quarter</type>
    <stem>up</stem>
    <notations>
     <technical>
      <string>5</string>
      <fret>2</fret>
     </technical>
<?GP7 <root></root>?>
    </notations>
<?GP7 <root></root>?>
   </note>
  </measure>
  <measure number="2">
   <attributes>
    <clef>
     <sign>G</sign>
     <line>2</line>
    </clef>
   </attributes>
   <attributes></attributes>
   <note>
    <pitch>
     <step>E</step>
     <octave>5</octave>
    </pitch>
    <duration>1</duration>
    <voice>1</voice>
    <type>quarter</type>
    <stem>up</stem>
    <notations>
     <technical>
      <string>1</string>
      <fret>0</fret>
     </technical>
<?GP7 <root></root>?>
    </notations>
<?GP7 <root></root>?>
   </note>
   <attributes></attributes>
   <note>
    <pitch>
     <step>E</step>
     <octave>5</octave>
    </pitch>
    <duration>1</duration>
    <voice>1</voice>
    <type>quarter</type>
    <stem>up</stem>
    <notations>
     <technical>
      <string>1</string>
      <fret>0</fret>
     </technical>
<?GP7 <root></root>?>
    </notations>
<?GP7 <root></root>?>
   </note>
   <attributes></attributes>
   <note>
    <chord/>
    <pitch>
     <step>E</step>
     <octave>4</octave>
    </pitch>
    <duration>1</duration>
    <voice>1</voice>
    <type>quarter</type>
    <stem>up</stem>
    <notations>
     <technical>
      <string>4</string>
      <fret>2</fret>
     </technical>
<?GP7 <root></root>?>
    </notations>
<?GP7 <root></root>?>
   </note>
   <attributes></attributes>
   <note>
    <pitch>
     <step>G</step>
     <octave>4</octave>
    </pitch>
    <duration>1</duration>
    <voice>1</voice>
    <type>quarter</type>
    <stem>up</stem>
    <notations>
     <technical>
      <string>3</string>
      <fret>0</fret>
     </technical>
<?GP7 <root></root>?>
    </notations>
<?GP7 <root></root>?>
   </note>
   <attributes></attributes>
   <note>
    <pitch>
     <step>E</step>
     <octave>5</octave>
    </pitch>
    <duration>1</duration>
    <voice>1</voice>
    <type>quarter</type>
    <stem>up</stem>
    <notations>
     <technical>
      <string>1</string>
      <fret>0</fret>
     </technical>
<?GP7 <root></root>?>
    </notations>
<?GP7 <root></root>?>
   </note>
   <attributes></attributes>
   <note>
    <chord/>
    <pitch>
     <step>E</step>
     <octave>4</octave>
    </pitch>
    <duration>1</duration>
    <voice>1</voice>
    <type>quarter</type>
    <stem>up</stem>
    <notations>
     <technical>
      <string>4</string>
      <fret>2</fret>
     </technical>
<?GP7 <root></root>?>
    </notations>
<?GP7 <root></root>?>
   </note>
  </measure>
  <measure number="3">
   <attributes>
    <clef>
     <sign>G</sign>
     <line>2</line>
    </clef>
   </attributes>
   <attributes></attributes>
   <note>
    <pitch>
     <step>D</step>
     <octave>5</octave>
    </pitch>
    <duration>1</duration>
    <voice>1</voice>
    <type>quarter</type>
    <stem>up</stem>
    <notations>
     <technical>
      <string>2</string>
      <fret>3</fret>
     </technical>
<?GP7 <root></root>?>
    </notations>
<?GP7 <root></root>?>
   </note>
   <attributes></attributes>
   <note>
    <chord/>
    <pitch>
     <step>G</step>
     <octave>3</octave>
    </pitch>
    <duration>1</duration>
    <voice>1</voice>
    <type>quarter</type>
    <stem>up</stem>
    <notations>
     <technical>
      <string>6</string>
      <fret>3</fret>
     </technical>
<?GP7 <root></root>?>
    </notations>
<?GP7 <root></root>?>
   </note>
   <attributes></attributes>
   <note>
    <pitch>
     <step>A</step>
     <octave>3</octave>
    </pitch>
    <duration>1</duration>
    <voice>1</voice>
    <type>quarter</type>
    <stem>up</stem>
    <notations>
     <technical>
      <string>5</string>
      <fret>0</fret>
     </technical>
<?GP7 <root></root>?>
    </notations>
<?GP7 <root></root>?>
   </note>
   <attributes></attributes>
   <note>
    <pitch>
     <step>D</step>
     <octave>4</octave>
    </pitch>
    <duration>1</duration>
    <voice>1</voice>
    <type>quarter</type>
    <stem>up</stem>
    <notations>
     <technical>
      <string>5</string>
      <fret>5</fret>
     </technical>
<?GP7 <root></root>?>
    </notations>
<?GP7 <root></root>?>
   </note>
   <attributes></attributes>
   <note>
    <pitch>
     <step>B</step>
     <octave>3</octave>
    </pitch>
    <duration>1</duration>
    <voice>1</voice>
    <type>quarter</type>
    <stem>up</stem>
    <notations>
     <technical>
      <string>5</string>
      <fret>2</fret>
     </technical>
<?GP7 <root></root>?>
    </notations>
<?GP7 <root></root>?>
   </note>
  </measure>
  <measure number="4">
   <attributes>
    <clef>
     <sign>G</sign>
     <line>2</line>
    </clef>
   </attributes>
   <attributes></attributes>
   <note>
    <pitch>
     <step>E</step>
     <octave>5</octave>
    </pitch>
    <duration>1</duration>
    <voice>1</voice>
    <type>quarter</type>
    <stem>up</stem>
    <notations>
     <technical>
      <string>1</string>
      <fret>0</fret>
     </technical>
<?GP7 <root></root>?>
    </notations>
<?GP7 <root></root>?>
   </note>
   <attributes></attributes>
   <note>
    <chord/>
    <pitch>
     <step>C</step>
     <octave>4</octave>
    </pitch>
    <duration>1</duration>
    <voice>1</voice>
    <type>quarter</type>
    <stem>up</stem>
    <notations>
     <technical>
      <string>5</string>
      <fret>3</fret>
     </technical>
<?GP7 <root></root>?>
    </notations>
<?GP7 <root></root>?>
   </note>
   <attributes></attributes>
   <note>
    <pitch>
     <step>E</step>
     <octave>5</octave>
    </pitch>
    <duration>1</duration>
    <voice>1</voice>
    <type>quarter</type>
    <stem>up</stem>
    <notations>
     <technical>
      <string>1</string>
      <fret>0</fret>
     </technical>
<?GP7 <root></root>?>
    </notations>
<?GP7 <root></root>?>
   </note>
   <attributes></attributes>
   <note>
    <chord/>
    <pitch>
     <step>E</step>
     <octave>3</octave>
    </pitch>
    <duration>1</duration>
    <voice>1</voice>
    <type>quarter</type>
    <stem>up</stem>
    <notations>
     <technical>
      <string>6</string>
      <fret>0</fret>
     </technical>
<?GP7 <root></root>?>
    </notations>
<?GP7 <root></root>?>
   </note>
   <attributes></attributes>
   <note>
    <pitch>
     <step>E</step>
     <octave>5</octave>
    </pitch>
    <duration>1</duration>
    <voice>1</voice>
    <type>quarter</type>
    <stem>up</stem>
    <notations>
     <technical>
      <string>1</string>
      <fret>0</fret>
     </technical>
<?GP7 <root></root>?>
    </notations>
<?GP7 <root></root>?>
   </note>
   <attributes></attributes>
   <note>
    <chord/>
    <pitch>
     <step>F</step>
     <octave>3</octave>
    </pitch>
    <duration>1</duration>
    <voice>1</voice>
    <type>quarter</type>
    <stem>up</stem>
    <notations>
     <technical>
      <string>6</string>
      <fret>1</fret>
     </technical>
<?GP7 <root></root>?>
    </notations>
<?GP7 <root></root>?>
   </note>
   <attributes></attributes>
   <note>
    <pitch>
     <step>E</step>
     <octave>5</octave>
    </pitch>
    <duration>1</duration>
    <voice>1</voice>
    <type>quarter</type>
    <stem>up</stem>
    <notations>
     <technical>
      <string>1</string>
      <fret>0</fret>
     </technical>
<?GP7 <root></root>?>
    </notations>
<?GP7 <root></root>?>
   </note>
   <attributes></attributes>
   <note>
    <chord/>
    <pitch>
     <step>F</step>
     <octave>3</octave>
    </pitch>
    <duration>1</duration>
    <voice>1</voice>
    <type>quarter</type>
    <stem>up</stem>
    <notations>
     <technical>
      <string>6</string>
      <fret>2</fret>
     </technical>
<?GP7 <root></root>?>
    </notations>
<?GP7 <root></root>?>
   </note>
  </measure>
  <measure number="5">
   <attributes>
    <clef>
     <sign>G</sign>
     <line>2</line>
    </clef>
   </attributes>
   <attributes></attributes>
   <note>
    <pitch>
     <step>D</step>
     <octave>5</octave>
    </pitch>
    <duration>1</duration>
    <voice>1</voice>
    <type>quarter</type>
    <stem>up</stem>
    <notations>
     <technical>
      <string>2</string>
      <fret>3</fret>
     </technical>
<?GP7 <root></root>?>
    </notations>
<?GP7 <root></root>?>
   </note>
   <attributes></attributes>
   <note>
    <chord/>
    <pitch>
     <step>G</step>
     <octave>3</octave>
    </pitch>
    <duration>1</duration>
    <voice>1</voice>
    <type>quarter</type>
    <stem>up</stem>
    <notations>
     <technical>
      <string>6</string>
      <fret>3</fret>
     </technical>
<?GP7 <root></root>?>
    </notations>
<?GP7 <root></root>?>
   </note>
   <attributes></attributes>
   <note>
    <pitch>
     <step>A</step>
     <octave>3</octave>
    </pitch>
    <duration>1</duration>
    <voice>1</voice>
    <type>quarter</type>
    <stem>up</stem>
    <notations>
     <technical>
      <string>5</string>
      <fret>0</fret>
     </technical>
<?GP7 <root></root>?>
    </notations>
<?GP7 <root></root>?>
   </note>
   <attributes></attributes>
   <note>
    <pitch>
     <step>B</step>
     <octave>3</octave>
    </pitch>
    <duration>1</duration>
    <voice>1</voice>
    <type>quarter</type>
    <stem>up</stem>
    <notations>
     <technical>
      <string>5</string>
      <fret>2</fret>
     </technical>
<?GP7 <root></root>?>
    </notations>
<?GP7 <root></root>?>
   </note>
   <attributes></attributes>
   <note>
    <pitch>
     <step>C</step>
     <octave>4</octave>
    </pitch>
    <duration>1</duration>
    <voice>1</voice>
    <type>quarter</type>
    <stem>up</stem>
    <notations>
     <technical>
      <string>5</string>
      <fret>3</fret>
     </technical>
<?GP7 <root></root>?>
    </notations>
<?GP7 <root></root>?>
   </note>
  </measure>
  <measure number="6">
   <attributes>
    <clef>
     <sign>G</sign>
     <line>2</line>
    </clef>
   </attributes>
   <attributes></attributes>
   <note>
    <pitch>
     <step>C</step>
     <octave>5</octave>
    </pitch>
    <duration>1</duration>
    <voice>1</voice>
    <type>quarter</type>
    <stem>up</stem>
    <notations>
     <technical>
      <string>2</string>
      <fret>1</fret>
     </technical>
<?GP7 <root></root>?>
    </notations>
<?GP7 <root></root>?>
   </note>
   <attributes></attributes>
   <note>
    <chord/>
    <pitch>
     <step>D</step>
     <octave>4</octave>
    </pitch>
    <duration>1</duration>
    <voice>1</voice>
    <type>quarter</type>
    <stem>up</stem>
    <notations>
     <technical>
      <string>4</string>
      <fret>0</fret>
     </technical>
<?GP7 <root></root>?>
    </notations>
<?GP7 <root></root>?>
   </note>
   <attributes></attributes>
   <note>
    <pitch>
     <step>C</step>
     <octave>5</octave>
    </pitch>
    <duration>1</duration>
    <voice>1</voice>
    <type>quarter</type>
    <stem>up</stem>
    <notations>
     <technical>
      <string>2</string>
      <fret>1</fret>
     </technical>
<?GP7 <root></root>?>
    </notations>
<?GP7 <root></root>?>
   </note>
   <attributes></attributes>
   <note>
    <chord/>
    <pitch>
     <step>E</step>
     <octave>4</octave>
    </pitch>
    <duration>1</duration>
    <voice>1</voice>
    <type>quarter</type>
    <stem>up</stem>
    <notations>
     <technical>
      <string>4</string>
      <fret>2</fret>
     </technical>
<?GP7 <root></root>?>
    </notations>
<?GP7 <root></root>?>
   </note>
   <attributes></attributes>
   <note>
    <pitch>
     <step>C</step>
     <octave>5</octave>
    </pitch>
    <duration>1</duration>
    <voice>1</voice>
    <type>quarter</type>
    <stem>up</stem>
    <notations>
     <technical>
      <string>2</string>
      <fret>1</fret>
     </technical>
<?GP7 <root></root>?>
    </notations>
<?GP7 <root></root>?>
   </note>
   <attributes></attributes>
   <note>
    <chord/>
    <pitch>
     <step>F</step>
     <octave>4</octave>
    </pitch>
    <duration>1</duration>
    <voice>1</voice>
    <type>quarter</type>
    <stem>up</stem>
    <notations>
     <technical>
      <string>4</string>
      <fret>4</fret>
     </technical>
<?GP7 <root></root>?>
    </notations>
<?GP7 <root></root>?>
   </note>
   <attributes></attributes>
   <note>
    <pitch>
     <step>C</step>
     <octave>5</octave>
    </pitch>
    <duration>1</duration>
    <voice>1</voice>
    <type>quarter</type>
    <stem>up</stem>
    <notations>
     <technical>
      <string>2</string>
      <fret>1</fret>
     </technical>
<?GP7 <root></root>?>
    </notations>
<?GP7 <root></root>?>
   </note>
   <attributes></attributes>
   <note>
    <chord/>
    <pitch>
     <step>A</step>
     <octave>4</octave>
    </pitch>
    <duration>1</duration>
    <voice>1</voice>
    <type>quarter</type>
    <stem>up</stem>
    <notations>
     <technical>
      <string>3</string>
      <fret>2</fret>
     </technical>
<?GP7 <root></root>?>
    </notations>
<?GP7 <root></root>?>
   </note>
  </measure>
  <measure number="7">
   <attributes>
    <clef>
     <sign>G</sign>
     <line>2</line>
    </clef>
   </attributes>
   <attributes></attributes>
   <note>
    <pitch>
     <step>B</step>
     <octave>4</octave>
    </pitch>
    <duration>1</duration>
    <voice>1</voice>
    <type>quarter</type>
    <stem>up</stem>
    <notations>
     <technical>
      <string>2</string>
      <fret>0</fret>
     </technical>
<?GP7 <root></root>?>
    </notations>
<?GP7 <root></root>?>
   </note>
   <attributes></attributes>
   <note>
    <chord/>
    <pitch>
     <step>G</step>
     <octave>4</octave>
    </pitch>
    <duration>1</duration>
    <voice>1</voice>
    <type>quarter</type>
    <stem>up</stem>
    <notations>
     <technical>
      <string>3</string>
      <fret>0</fret>
     </technical>
<?GP7 <root></root>?>
    </notations>
<?GP7 <root></root>?>
   </note>
   <attributes></attributes>
   <note>
    <pitch>
     <step>D</step>
     <octave>4</octave>
    </pitch>
    <duration>1</duration>
    <voice>1</voice>
    <type>quarter</type>
    <stem>up</stem>
    <notations>
     <technical>
      <string>4</string>
      <fret>0</fret>
     </technical>
<?GP7 <root></root>?>
    </notations>
<?GP7 <root></root>?>
   </note>
   <attributes></attributes>
   <note>
    <pitch>
     <step>B</step>
     <octave>4</octave>
    </pitch>
    <duration>1</duration>
    <voice>1</voice>
    <type>quarter</type>
    <stem>up</stem>
    <notations>
     <technical>
      <string>2</string>
      <fret>0</fret>
     </technical>
<?GP7 <root></root>?>
    </notations>
<?GP7 <root></root>?>
   </note>
   <attributes></attributes>
   <note>
    <chord/>
    <pitch>
     <step>E</step>
     <octave>4</octave>
    </pitch>
    <duration>1</duration>
    <voice>1</voice>
    <type>quarter</type>
    <stem>up</stem>
    <notations>
     <technical>
      <string>4</string>
      <fret>2</fret>
     </technical>
<?GP7 <root></root>?>
    </notations>
<?GP7 <root></root>?>
   </note>
   <attributes></attributes>
   <note>
    <pitch>
     <step>D</step>
     <octave>4</octave>
    </pitch>
    <duration>1</duration>
    <voice>1</voice>
    <type>quarter</type>
    <stem>up</stem>
    <notations>
     <technical>
      <string>4</string>
      <fret>1</fret>
     </technical>
<?GP7 <root></root>?>
    </notations>
<?GP7 <root></root>?>
   </note>
  </measure>
  <measure number="8">
   <attributes>
    <clef>
     <sign>G</sign>
     <line>2</line>
    </clef>
   </attributes>
   <attributes></attributes>
   <note>
    <pitch>
     <step>D</step>
     <octave>5</octave>
    </pitch>
    <duration>1</duration>
    <voice>1</voice>
    <type>quarter</type>
    <stem>up</stem>
    <notations>
     <technical>
      <string>2</string>
      <fret>3</fret>
     </technical>
<?GP7 <root></root>?>
    </notations>
<?GP7 <root></root>?>
   </note>
   <attributes></attributes>
   <note>
    <chord/>
    <pitch>
     <step>D</step>
     <octave>4</octave>
    </pitch>
    <duration>1</duration>
    <voice>1</voice>
    <type>quarter</type>
    <stem>up</stem>
    <notations>
     <technical>
      <string>4</string>
      <fret>0</fret>
     </technical>
<?GP7 <root></root>?>
    </notations>
<?GP7 <root></root>?>
   </note>
   <attributes></attributes>
   <note>
    <pitch>
     <step>D</step>
     <octave>5</octave>
    </pitch>
    <duration>1</duration>
    <voice>1</voice>
    <type>quarter</type>
    <stem>up</stem>
    <notations>
     <technical>
      <string>2</string>
      <fret>3</fret>
     </technical>
<?GP7 <root></root>?>
    </notations>
<?GP7 <root></root>?>
   </note>
   <attributes></attributes>
   <note>
    <chord/>
    <pitch>
     <step>C</step>
     <octave>4</octave>
    </pitch>
    <duration>1</duration>
    <voice>1</voice>
    <type>quarter</type>
    <stem>up</stem>
    <notations>
     <technical>
      <string>5</string>
      <fret>3</fret>
     </technical>
<?GP7 <root></root>?>
    </notations>
<?GP7 <root></root>?>
   </note>
   <attributes></attributes>
   <note>
    <pitch>
     <step>D</step>
     <octave>5</octave>
    </pitch>
    <duration>1</duration>
    <voice>1</voice>
    <type>quarter</type>
    <stem>up</stem>
    <notations>
     <technical>
      <string>2</string>
      <fret>3</fret>
     </technical>
<?GP7 <root></root>?>
    </notations>
<?GP7 <root></root>?>
   </note>
   <attributes></attributes>
   <note>
    <chord/>
    <pitch>
     <step>B</step>
     <octave>3</octave>
    </pitch>
    <duration>1</duration>
    <voice>1</voice>
    <type>quarter</type>
    <stem>up</stem>
    <notations>
     <technical>
      <string>5</string>
      <fret>2</fret>
     </technical>
<?GP7 <root></root>?>
    </notations>
<?GP7 <root></root>?>
   </note>
   <attributes></attributes>
   <note>
    <pitch>
     <step>D</step>
     <octave>5</octave>
    </pitch>
    <duration>1</duration>
    <voice>1</voice>
    <type>quarter</type>
    <stem>up</stem>
    <notations>
     <technical>
      <string>2</string>
      <fret>3</fret>
     </technical>
<?GP7 <root></root>?>
    </notations>
<?GP7 <root></root>?>
   </note>
   <attributes></attributes>
   <note>
    <chord/>
    <pitch>
     <step>A</step>
     <octave>3</octave>
    </pitch>
    <duration>1</duration>
    <voice>1</voice>
    <type>quarter</type>
    <stem>up</stem>
    <notations>
     <technical>
      <string>5</string>
      <fret>0</fret>
     </technical>
<?GP7 <root></root>?>
    </notations>
<?GP7 <root></root>?>
   </note>
  </measure>
  <measure number="9">
   <attributes>
    <clef>
     <sign>G</sign>
     <line>2</line>
    </clef>
   </attributes>
   <attributes></attributes>
   <note>
    <pitch>
     <step>G</step>
     <octave>4</octave>
    </pitch>
    <duration>4</duration>
    <voice>1</voice>
    <type>whole</type>
    <stem>up</stem>
    <notations>
     <technical>
      <string>3</string>
      <fret>0</fret>
     </technical>
<?GP7 <root></root>?>
    </notations>
<?GP7 <root></root>?>
   </note>
   <attributes></attributes>
   <note>
    <chord/>
    <pitch>
     <step>G</step>
     <octave>3</octave>
    </pitch>
    <duration>4</duration>
    <voice>1</voice>
    <type>whole</type>
    <stem>up</stem>
    <notations>
     <technical>
      <string>6</string>
      <fret>3</fret>
     </technical>
<?GP7 <root></root>?>
    </notations>
<?GP7 <root></root>?>
   </note>
  </measure>
 </part>
</score-partwise>
